<?xml version="1.0" standalone="no"?>
<!DOCTYPE svg PUBLIC "-//W3C//DTD SVG 20010904//EN"
 "http://www.w3.org/TR/2001/REC-SVG-20010904/DTD/svg10.dtd">
<svg version="1.0" xmlns="http://www.w3.org/2000/svg"
 width="739.000000pt" height="739.000000pt" viewBox="0 0 739.000000 739.000000"
 preserveAspectRatio="xMidYMid meet">
<metadata>
Created by potrace 1.14, written by Peter Selinger 2001-2017
</metadata>
<g transform="translate(0.000000,739.000000) scale(0.100000,-0.100000)"
fill="#000000" stroke="none">
<path d="M3750 6543 c-65 -11 -187 -62 -218 -90 -7 -7 -17 -13 -21 -13 -16 0
-141 -136 -141 -153 0 -6 -6 -18 -14 -26 -34 -37 -63 -135 -72 -241 -7 -75 -7
-70 1 -115 32 -190 147 -350 310 -430 66 -33 66 -31 43 -86 -11 -27 -26 -49
-32 -49 -6 0 -31 -25 -56 -56 -25 -31 -57 -61 -72 -66 -16 -6 -28 -14 -28 -19
0 -5 -5 -9 -11 -9 -6 0 -24 -10 -41 -22 -48 -37 -221 -210 -253 -253 -17 -22
-32 -42 -35 -45 -3 -3 -17 -21 -30 -40 -13 -19 -27 -37 -30 -40 -18 -16 -168
-302 -174 -333 -2 -7 -8 -24 -14 -38 -16 -39 -71 -198 -72 -207 0 -4 -5 -23
-10 -42 -5 -19 -11 -46 -14 -60 -3 -14 -8 -36 -11 -50 -3 -14 -8 -38 -10 -55
-3 -16 -8 -37 -10 -45 -8 -31 -17 -117 -20 -183 -5 -133 50 -227 163 -279 23
-10 42 -20 42 -21 0 -1 -44 -3 -98 -3 -53 -1 -110 -3 -127 -5 -73 -11 -143
-69 -174 -144 -6 -17 -13 -67 -14 -110 l-2 -80 -308 0 c-169 0 -307 2 -307 5
2 19 32 38 68 42 55 7 101 43 102 80 0 21 14 30 53 33 79 6 157 69 174 140 5
22 8 267 8 545 l-1 505 -22 45 c-25 48 -69 85 -120 99 -47 14 -1232 12 -1277
-2 -48 -14 -109 -76 -123 -126 -9 -28 -12 -182 -12 -548 l1 -510 23 -44 c15
-28 40 -55 70 -73 44 -28 77 -34 199 -36 10 0 16 -4 13 -8 -10 -16 27 -71 59
-86 18 -9 58 -16 89 -16 45 0 57 -4 66 -20 9 -16 6 -24 -19 -47 -31 -28 -48
-78 -30 -89 5 -3 7 -10 4 -15 -3 -5 8 -17 25 -27 28 -18 54 -19 321 -18 160 1
293 -2 295 -5 2 -3 -13 -14 -33 -23 -21 -10 -62 -34 -92 -54 l-56 -37 -135 -1
c-174 -2 -206 -16 -235 -101 -12 -36 -16 -38 -57 -39 -66 -1 -98 -12 -107 -37
-6 -18 -8 -95 -2 -144 2 -20 42 -37 91 -38 25 -1 50 -3 55 -4 20 -2 11 -199
-14 -284 -21 -74 -25 -89 -36 -147 -3 -14 -7 -36 -10 -50 -3 -14 -8 -50 -11
-80 -2 -30 -6 -64 -8 -76 -4 -23 -19 -22 235 -23 l116 -1 -2 -38 c-2 -20 -4
-40 -4 -43 -1 -3 -30 -5 -66 -4 l-66 1 3 -50 3 -50 62 3 c59 2 62 1 77 -27 22
-43 53 -59 114 -57 28 0 53 -2 53 -5 1 -3 3 -18 4 -35 1 -26 9 -73 21 -139 6
-31 37 -108 62 -156 74 -136 195 -251 328 -311 426 -193 900 45 1004 507 l11
50 92 47 c51 25 147 75 214 111 l123 64 257 0 258 0 -3 -62 -4 -62 430 0 430
0 0 57 c0 45 -4 59 -17 62 -9 2 159 4 372 5 375 1 389 2 422 22 44 27 48 48
47 259 0 174 5 201 36 201 6 0 12 4 14 8 2 4 32 28 68 52 36 25 67 47 70 50 3
3 18 14 34 24 29 18 30 18 43 0 30 -40 33 -51 15 -70 -34 -37 -85 -120 -118
-192 -18 -39 -31 -72 -28 -72 3 0 0 -8 -5 -19 -10 -18 -15 -41 -30 -132 -6
-38 -7 -127 -2 -187 1 -9 9 -9 37 3 20 8 37 15 39 15 1 0 2 -39 3 -87 1 -78 5
-112 28 -212 15 -71 96 -212 158 -279 47 -50 146 -125 196 -149 80 -38 143
-63 147 -59 3 3 21 -1 42 -9 47 -16 230 -16 285 0 23 7 43 12 46 12 31 -1 157
59 226 109 218 155 333 429 288 687 -16 96 -19 106 -45 168 -25 59 -81 149
-116 189 -13 13 -19 27 -15 31 4 4 45 19 92 34 47 15 87 29 89 31 9 8 -72 116
-127 171 -205 204 -504 283 -782 207 -30 -8 -62 -18 -70 -21 -8 -3 -17 -7 -20
-7 -3 -1 -33 -16 -68 -34 -34 -17 -66 -32 -71 -32 -12 0 -33 52 -23 59 4 3 26
17 48 31 21 13 44 29 50 35 6 6 38 28 72 50 34 22 61 46 62 53 0 7 -18 41 -40
76 -22 35 -40 65 -40 68 0 3 -22 45 -48 94 -27 49 -75 139 -107 199 -32 61
-72 137 -90 170 -18 33 -58 110 -90 170 -32 61 -75 143 -97 183 l-39 72 155 0
c162 0 155 1 281 -55 16 -7 86 -37 155 -65 163 -68 467 -197 505 -215 47 -21
227 -95 232 -95 2 0 1 323 -2 718 -4 394 -7 762 -7 817 0 55 -2 103 -5 107 -2
5 -29 -8 -59 -27 -30 -19 -59 -35 -64 -35 -6 0 -10 -4 -10 -10 0 -5 -5 -10
-10 -10 -6 0 -29 -12 -53 -27 -23 -15 -51 -31 -62 -37 -11 -6 -81 -48 -156
-94 -76 -45 -142 -82 -148 -82 -6 0 -11 -3 -11 -8 0 -4 -28 -23 -62 -41 -35
-19 -65 -37 -68 -41 -3 -3 -50 -32 -105 -64 -156 -90 -168 -97 -200 -119 -28
-20 -44 -21 -264 -22 -144 0 -240 3 -250 10 -10 5 -33 20 -52 33 -31 21 -101
46 -160 57 -62 13 -142 15 -509 16 -432 2 -476 6 -588 59 -93 44 -212 144
-227 191 -4 11 -11 19 -16 19 -5 0 -9 4 -9 10 0 5 -43 76 -96 157 l-96 148 15
45 c9 25 19 65 22 90 6 45 6 46 -28 58 l-35 12 15 63 c8 34 17 68 19 75 3 10
12 9 41 -3 64 -27 129 -26 192 3 31 15 61 26 68 27 6 0 42 29 78 64 65 62 87
100 98 170 3 16 8 34 11 39 3 5 8 24 10 43 3 19 8 49 10 68 3 18 6 51 8 73 2
45 7 50 57 53 20 1 64 10 99 21 74 22 77 28 76 154 0 87 -17 147 -65 243 -42
81 -158 218 -233 275 l-29 22 -93 -50 c-96 -52 -106 -53 -154 -20 -23 16 -95
44 -145 57 -27 7 -194 11 -225 6z m115 -2290 c79 -73 80 -74 140 -105 60 -32
133 -57 189 -64 23 -3 273 -7 556 -7 l514 -2 6 -30 c15 -69 68 -113 133 -110
23 1 49 5 58 9 14 6 16 -10 16 -136 0 -99 3 -143 12 -146 6 -2 8 -9 4 -15 -4
-6 -8 -34 -9 -62 -1 -27 -4 -86 -8 -130 -4 -44 -9 -111 -12 -150 -2 -38 -7
-95 -9 -125 -3 -30 -7 -91 -10 -135 -3 -44 -7 -105 -10 -135 -3 -30 -7 -92
-10 -137 -2 -45 -9 -108 -14 -140 -6 -32 -13 -78 -16 -103 -3 -25 -8 -56 -10
-70 -2 -14 -7 -45 -10 -70 -12 -91 -15 -116 -19 -135 -6 -32 -18 -118 -21
-150 -2 -16 -4 -30 -5 -30 -1 0 -4 -11 -5 -25 -2 -14 -6 -38 -9 -55 -2 -16 -5
-32 -5 -35 -1 -3 -49 -5 -108 -5 l-108 0 4 35 c13 113 -7 192 -53 207 -12 3
-65 7 -119 8 -53 1 -100 4 -103 7 -3 3 -8 327 -11 719 -7 959 -5 892 -25 895
-9 1 -54 5 -99 9 -46 4 -95 9 -109 10 -14 2 -65 6 -115 10 -49 4 -106 8 -125
10 -19 3 -66 7 -105 10 -38 3 -95 8 -125 11 -30 3 -84 7 -120 9 -36 3 -83 7
-105 10 -48 7 -103 12 -167 14 l-47 1 3 63 c4 60 6 70 22 112 4 11 8 22 9 25
16 45 87 190 94 190 2 0 32 -26 66 -57z m1672 -599 c-3 -3 -12 -4 -19 -1 -8 3
-5 6 6 6 11 1 17 -2 13 -5z m-1306 -189 c1 -5 1 -12 1 -15 0 -3 -3 -59 -6
-125 -3 -66 -8 -160 -11 -210 -3 -49 -7 -121 -10 -160 -10 -176 -16 -276 -20
-350 -2 -44 -7 -132 -11 -195 -4 -63 -7 -140 -8 -170 l-1 -55 33 -3 32 -3 0
-112 0 -112 -236 0 -236 0 -64 89 c-35 49 -64 95 -64 102 0 7 -4 14 -8 16 -10
4 -60 111 -66 140 -2 13 -9 35 -14 49 -32 82 -30 245 4 345 42 125 137 254
197 269 31 8 67 53 67 85 0 31 -36 78 -63 82 -20 3 -22 9 -23 70 -2 102 -21
155 -72 206 -25 24 -58 46 -74 49 -15 3 -30 8 -32 12 -2 3 151 6 340 6 222 0
344 -4 345 -10z m16 -1781 c-3 -3 -12 -4 -19 -1 -8 3 -5 6 6 6 11 1 17 -2 13
-5z m96 -1 c-7 -2 -21 -2 -30 0 -10 3 -4 5 12 5 17 0 24 -2 18 -5z m144 1 c-3
-3 -12 -4 -19 -1 -8 3 -5 6 6 6 11 1 17 -2 13 -5z m96 -1 c-7 -2 -21 -2 -30 0
-10 3 -4 5 12 5 17 0 24 -2 18 -5z m144 1 c-3 -3 -12 -4 -19 -1 -8 3 -5 6 6 6
11 1 17 -2 13 -5z m96 -1 c-7 -2 -21 -2 -30 0 -10 3 -4 5 12 5 17 0 24 -2 18
-5z"/>
<path d="M7 1402 c-8 -10 -8 -19 0 -30 9 -16 76 -17 822 -18 624 -1 814 2 821
11 10 12 4 44 -9 46 -3 1 -370 2 -814 3 -664 1 -811 -1 -820 -12z"/>
<path d="M28 1252 c-24 -5 -23 -41 2 -50 10 -4 380 -7 820 -7 688 0 802 2 810
15 5 8 5 21 0 30 -8 13 -98 15 -812 15 -442 1 -811 -1 -820 -3z"/>
</g>
</svg>
