<svg width="27" height="20" viewBox="0 0 27 20" fill="none" xmlns="http://www.w3.org/2000/svg">
<path d="M6.39584 7.91633C6.1078 7.91633 5.83138 7.96024 5.55625 8.00029C5.64538 7.70062 5.73709 7.39579 5.88434 7.12195C6.03159 6.72412 6.2615 6.37925 6.49013 6.03179C6.6813 5.65591 7.01842 5.40145 7.26642 5.07983C7.52605 4.76724 7.87996 4.55929 8.16025 4.29966C8.43538 4.02841 8.79575 3.89279 9.0825 3.70162C9.38217 3.52983 9.64309 3.33995 9.92209 3.24954L10.6183 2.96279L11.2305 2.70833L10.6041 0.205078L9.83296 0.391078C9.58626 0.453078 9.2853 0.525411 8.943 0.611953C8.59296 0.676536 8.21967 0.853495 7.80375 1.01495C7.393 1.19837 6.91767 1.32237 6.47592 1.61687C6.03159 1.89845 5.5188 2.13354 5.06671 2.5107C4.62884 2.89949 4.10055 3.23662 3.71046 3.73133C3.28421 4.19375 2.86313 4.67941 2.53634 5.23224C2.15788 5.75924 1.90084 6.33791 1.62959 6.91012C1.38417 7.48233 1.18655 8.06745 1.02509 8.63579C0.718963 9.77504 0.582046 10.8575 0.529088 11.7836C0.485171 12.711 0.511004 13.4821 0.565254 14.0401C0.584629 14.3036 0.620796 14.5594 0.64663 14.7363L0.678921 14.9533L0.712504 14.9456C0.942242 16.0187 1.47111 17.0049 2.23792 17.7901C3.00473 18.5752 3.97815 19.1272 5.04558 19.3822C6.11301 19.6372 7.23083 19.5849 8.26973 19.2311C9.30863 18.8774 10.2262 18.2367 10.9162 17.3833C11.6062 16.5299 12.0405 15.4986 12.1688 14.4086C12.2972 13.3187 12.1143 12.2147 11.6415 11.2243C11.1686 10.2339 10.425 9.39769 9.49668 8.81229C8.56838 8.22689 7.49331 7.91626 6.39584 7.91633ZM20.6042 7.91633C20.3161 7.91633 20.0397 7.96024 19.7646 8.00029C19.8537 7.70062 19.9454 7.39579 20.0927 7.12195C20.2399 6.72412 20.4698 6.37925 20.6985 6.03179C20.8896 5.65591 21.2268 5.40145 21.4748 5.07983C21.7344 4.76724 22.0883 4.55929 22.3686 4.29966C22.6437 4.02841 23.0041 3.89279 23.2908 3.70162C23.5905 3.52983 23.8514 3.33995 24.1304 3.24954L24.8266 2.96279L25.4389 2.70833L24.8124 0.205078L24.0413 0.391078C23.7946 0.453078 23.4936 0.525411 23.1513 0.611953C22.8013 0.676536 22.428 0.853495 22.0121 1.01495C21.6026 1.19966 21.126 1.32237 20.6843 1.61816C20.2399 1.89974 19.7271 2.13483 19.275 2.51199C18.8372 2.90079 18.3089 3.23791 17.9188 3.73133C17.4925 4.19375 17.0715 4.67941 16.7447 5.23224C16.3662 5.75924 16.1092 6.33791 15.8379 6.91012C15.5925 7.48233 15.3949 8.06745 15.2334 8.63579C14.9273 9.77504 14.7904 10.8575 14.7374 11.7836C14.6935 12.711 14.7193 13.4821 14.7736 14.0401C14.793 14.3036 14.8291 14.5594 14.855 14.7363L14.8873 14.9533L14.9208 14.9456C15.1506 16.0187 15.6794 17.0049 16.4462 17.7901C17.2131 18.5752 18.1865 19.1272 19.2539 19.3822C20.3213 19.6372 21.4392 19.5849 22.4781 19.2311C23.517 18.8774 24.4345 18.2367 25.1245 17.3833C25.8145 16.5299 26.2488 15.4986 26.3772 14.4086C26.5055 13.3187 26.3227 12.2147 25.8498 11.2243C25.3769 10.2339 24.6333 9.39769 23.705 8.81229C22.7767 8.22689 21.7016 7.91626 20.6042 7.91633Z" fill="#1093A1"/>
</svg>
